IKResults
version=1
nRows=13
nColumns=40
inDegrees=yes

Units are S.I. units (second, meters, Newtons, ...)
Angles are in degrees.

endheader
time	pelvis_tilt	pelvis_list	pelvis_rotation	pelvis_tx	pelvis_ty	pelvis_tz	hip_flexion_r	hip_adduction_r	hip_rotation_r	knee_angle_r	knee_angle_r_beta	ankle_angle_r	subtalar_angle_r	mtp_angle_r	hip_flexion_l	hip_adduction_l	hip_rotation_l	knee_angle_l	knee_angle_l_beta	ankle_angle_l	subtalar_angle_l	mtp_angle_l	lumbar_extension	lumbar_bending	lumbar_rotation	arm_flex_r	arm_add_r	arm_rot_r	elbow_flex_r	pro_sup_r	wrist_flex_r	wrist_dev_r	arm_flex_l	arm_add_l	arm_rot_l	elbow_flex_l	pro_sup_l	wrist_flex_l	wrist_dev_l
      0.57000000	     12.10802222	     -3.89580465	      5.85100184	      0.27458434	      0.89951292	      1.43311111	     19.53016236	     -3.11445456	    -33.53326106	    -17.81410134	     -0.31091472	      6.30091339	      8.43754428	    -12.70222310	    -29.06359712	      4.82963421	      6.45769126	    -21.20065050	     -0.37002115	     18.81702129	      5.14334121	    -10.61802139	    -20.11540332	      5.88135881	    -11.05638395	    -21.99370583	    -13.29465901	    -10.43062973	     12.52259860	     89.95437384	      0.00000000	      0.00000000	     10.90433155	     14.43535463	      7.23285594	     58.51883737	     89.95437384	      0.00000000	      0.00000000
      0.58000000	     11.75509615	     -4.17031730	      6.15114799	      0.29209724	      0.89735253	      1.43312234	     20.35161292	     -2.90348958	    -32.12475575	    -18.92771454	     -0.33035094	      6.12906843	      7.70575542	    -12.40915074	    -29.18050759	      5.34099494	      6.17667345	    -22.36138958	     -0.39027987	     17.90549357	      5.37716972	    -10.33282284	    -19.55339321	      6.34534097	    -11.44957517	    -22.16466776	    -13.58367751	    -10.45001917	     12.18845414	     89.95437384	      0.00000000	      0.00000000	     10.91134363	     14.24259644	      7.68030235	     59.18610725	     89.95437384	      0.00000000	      0.00000000
      0.59000000	     11.43367756	     -4.33511146	      6.54362624	      0.30999299	      0.89557123	      1.43284516	     20.97123743	     -2.77520430	    -30.22286238	    -20.19878619	     -0.35253532	      5.72376282	      7.20712261	    -12.03992053	    -29.26932177	      5.73991646	      5.60778805	    -23.53561943	     -0.41077405	     16.83399393	      5.36534077	     -9.98686497	    -18.99594427	      6.74079123	    -11.88387886	    -22.55018937	    -13.91729950	    -10.54103974	     12.42460784	     89.95437384	      0.00000000	      0.00000000	     10.91078384	     14.04625338	      7.88655569	     59.60493081	     89.95437384	      0.00000000	      0.00000000
      0.60000000	     10.99450775	     -4.43569702	      6.61888054	      0.32802410	      0.89402573	      1.43316808	     21.61767293	     -2.09726541	    -26.40673663	    -21.32531264	     -0.37219692	      5.68569364	      1.86846105	    -10.92179752	    -29.27813740	      5.64046557	      4.25675084	    -24.67588227	     -0.43067539	     15.59267077	      8.39545788	     -9.37220706	    -18.34008810	      6.94621033	    -12.38751803	    -22.15316460	    -14.24548728	    -10.30037108	     11.59592901	     89.95437384	      0.00000000	      0.00000000	     10.45904408	     13.73364263	      8.91896958	     60.23637866	     89.95437384	      0.00000000	      0.00000000
      0.61000000	     10.76771753	     -4.65161536	      6.99524532	      0.34660512	      0.89298991	      1.43310080	     21.77898080	     -1.44932051	    -23.43497059	    -22.53162411	     -0.39325103	      5.30801035	     -1.39259091	     -9.78112848	    -29.27345013	      5.92105915	      3.37054457	    -26.11088283	     -0.45572088	     13.88653156	     10.20128987	     -8.89491683	    -17.82992083	      7.38070726	    -12.86831822	    -22.15535720	    -14.55845283	    -10.56941201	     11.53793958	     89.95437384	      0.00000000	      0.00000000	     10.15449036	     13.46429076	      9.31215159	     60.48522981	     89.95437384	      0.00000000	      0.00000000
      0.62000000	     10.65698207	     -4.79122648	      7.42860782	      0.36580252	      0.89211440	      1.43289949	     21.76974899	     -1.17035248	    -21.60031224	    -24.13716705	     -0.42127304	      4.94464319	     -1.63159307	     -9.41283236	    -29.27979128	      6.27615258	      2.94784726	    -27.66664561	     -0.48287406	     12.21873971	     10.24728924	     -8.49975140	    -17.36277767	      7.75461257	    -13.25167689	    -22.46285155	    -14.86634840	    -10.53530313	     11.92233392	     89.95437384	      0.00000000	      0.00000000	      9.94405120	     13.18535852	      9.45430801	     60.40256274	     89.95437384	      0.00000000	      0.00000000
      0.63000000	     10.58189113	     -5.00465290	      7.60766793	      0.38517704	      0.89187927	      1.43344565	     21.54136798	     -0.31945715	    -19.80574918	    -24.99682735	     -0.43627694	      2.02385538	     -7.71460792	     -6.99787613	    -29.27079444	      6.42882763	      2.49857326	    -29.24568921	     -0.51043357	      9.39030523	     13.62772958	     -7.48824598	    -16.98110645	      8.08275483	    -13.46228039	    -22.23367453	    -15.10278012	    -10.71696428	     11.68597251	     89.95437384	      0.00000000	      0.00000000	      9.52023162	     12.79448445	      9.92663871	     60.33723945	     89.95437384	      0.00000000	      0.00000000
      0.64000000	     10.59302345	     -5.33346325	      7.76200699	      0.40473188	      0.89191315	      1.43402478	     21.51686385	     -0.06020782	    -19.71443251	    -26.50291232	     -0.46256308	      0.02676336	     -8.37962123	     -6.42023726	    -29.21584332	      6.94489222	      2.94786547	    -30.92627180	     -0.53976527	      6.21485957	     14.48226413	     -6.96297309	    -16.66984735	      8.52241882	    -13.45386418	    -22.16896892	    -15.34716410	    -10.74180420	     11.77776314	     89.95437384	      0.00000000	      0.00000000	      9.23982612	     12.32870205	     10.23339994	     59.89716335	     89.95437384	      0.00000000	      0.00000000
      0.65000000	     10.62858962	     -6.12410383	      7.70208072	      0.42411372	      0.89248746	      1.43577846	     21.36752177	      1.23152572	    -17.90433179	    -27.66090240	     -0.48277382	     -1.68791014	    -11.60917120	     -5.54828125	    -29.15890277	      7.83121607	      3.45026429	    -32.50544610	     -0.56732706	      3.50488480	     15.72449802	     -5.49286113	    -16.42772166	      9.31134930	    -13.03994005	    -21.85409116	    -15.48016332	    -11.60647512	     11.73984196	     89.95437384	      0.00000000	      0.00000000	      9.01059583	     11.88603657	     10.43601162	     59.24069200	     89.95437384	      0.00000000	      0.00000000
      0.66000000	     10.76218956	     -6.69712772	      7.57135816	      0.44338668	      0.89359982	      1.43702104	     21.21639950	      1.83192610	    -17.60090616	    -29.70635443	     -0.51847369	     -2.63211880	    -11.66473277	     -5.33690477	    -29.04817459	      8.47269612	      3.86748335	    -34.36249288	     -0.59973864	      0.71969811	     16.25760068	     -4.90243702	    -16.34884038	      9.90090764	    -12.55879451	    -21.51123518	    -15.70077752	    -11.25400152	     11.76210778	     89.95437384	      0.00000000	      0.00000000	      8.80235493	     11.37067213	     10.66004970	     58.35484766	     89.95437384	      0.00000000	      0.00000000
      0.67000000	     11.12521963	     -7.64760253	      7.24689068	      0.46226325	      0.89574926	      1.43872562	     20.34330826	      3.59039792	    -15.68251168	    -30.58284486	     -0.53377134	     -3.38850494	    -13.22006124	     -4.14871245	    -28.96929258	      9.35820730	      4.37674872	    -36.51398417	     -0.63728925	     -1.97580115	     16.81114016	     -2.59565110	    -16.64513900	     10.84506446	    -11.77041290	    -21.00712205	    -16.05653897	    -10.32426407	     12.00997642	     89.95437384	      0.00000000	      0.00000000	      8.58325192	     10.81262162	     10.96574695	     57.34332692	     89.95437384	      0.00000000	      0.00000000
      0.68000000	     11.65593639	     -8.14291917	      7.12060473	      0.48077309	      0.89843682	      1.43992447	     19.30520640	      4.43294358	    -15.22211260	    -31.76352292	     -0.55437806	     -2.63251093	    -13.20359832	     -3.97713121	    -28.73901090	      9.85308908	      4.38407340	    -38.90615681	     -0.67904054	     -4.71242163	     17.49261670	     -1.92723193	    -17.18425089	     11.34208331	    -11.16322589	    -20.20709390	    -16.19838811	    -10.07628603	     11.97810762	     89.95437384	      0.00000000	      0.00000000	      8.49011504	     10.33332459	     11.09135025	     56.13017723	     89.95437384	      0.00000000	      0.00000000
      0.69000000	     12.30278205	     -8.63417288	      6.94832077	      0.49896117	      0.90162521	      1.44129840	     17.83021986	      5.50561051	    -14.32977847	    -32.33970592	     -0.56443435	     -1.80091647	    -13.25593576	     -3.79165886	    -28.42165469	     10.26827543	      4.16241084	    -41.33199176	     -0.72137934	     -7.56078183	     18.10035662	     -1.20483168	    -17.92492263	     11.80302141	    -10.48005689	    -19.29336223	    -16.33849033	     -9.77198372	     12.10899527	     89.95437384	      0.00000000	      0.00000000	      8.34475060	      9.91030664	     11.17582667	     54.84417390	     89.95437384	      0.00000000	      0.00000000
